<?xml version="1.0" encoding="utf-8"?>
<svg version="1.1" id="Layer_1" xmlns="http://www.w3.org/2000/svg" xmlns:xlink="http://www.w3.org/1999/xlink" x="0px" y="0px"
	 width="256px" height="256px" viewBox="0 0 256 256" enable-background="new 0 0 256 256"
	 xml:space="preserve">
<path display="none" fill="#5FA9DD" d="M270.332,28.818c-9.76,4.328-20.249,7.255-31.258,8.57
	c11.237-6.735,19.867-17.401,23.93-30.11c-10.515,6.237-22.163,10.766-34.56,13.207c-9.928-10.578-24.072-17.187-39.725-17.187
	c-30.058,0-54.426,24.368-54.426,54.423c0,4.266,0.481,8.419,1.409,12.403C90.47,67.854,50.368,46.187,23.525,13.26
	c-4.685,8.038-7.368,17.387-7.368,27.361c0,18.881,9.608,35.54,24.211,45.3c-8.921-0.282-17.313-2.731-24.651-6.807
	c-0.004,0.227-0.005,0.455-0.005,0.684c0,26.369,18.76,48.366,43.658,53.366c-4.567,1.243-9.375,1.908-14.339,1.908
	c-3.507,0-6.916-0.341-10.24-0.976c6.926,21.622,27.025,37.357,50.84,37.797c-18.626,14.596-42.093,23.297-67.591,23.297
	c-4.393,0-8.725-0.258-12.983-0.76c24.085,15.442,52.693,24.451,83.427,24.451c100.106,0,154.847-82.93,154.847-154.849
	c0-2.359-0.053-4.707-0.157-7.04C253.808,49.318,263.035,39.732,270.332,28.818z"/>
<path id="White_2_" display="none" fill="#FFFFFF" d="M230.002,10.683H51.28c-6.125,0-11.088,4.963-11.088,11.088v178.722
	c0,6.123,4.963,11.088,11.088,11.088h96.218v-77.798h-26.181v-30.32h26.181v-22.36c0-25.948,15.848-40.078,38.996-40.078
	c11.088,0,20.618,0.826,23.395,1.194v27.118l-16.054,0.007c-12.589,0-15.027,5.982-15.027,14.76v19.358h30.024l-3.909,30.32h-26.114
	v77.798h51.194c6.123,0,11.088-4.965,11.088-11.088V21.771C241.09,15.646,236.125,10.683,230.002,10.683z"/>
<path id="f" fill="#FFFFFF" d="M158.232,219.912v-94.461h31.707l4.747-36.813h-36.454V65.134c0-10.658,2.96-17.922,18.245-17.922
	l19.494-0.009V14.278c-3.373-0.448-14.944-1.45-28.406-1.45c-28.106,0-47.348,17.156-47.348,48.662v27.149H88.428v36.813h31.788
	v94.461H158.232z"/>
</svg>